<svg version="1.0" xmlns="http://www.w3.org/2000/svg" width="1024.000000ptpx" height="1024.000000ptpx" viewBox="0 0 1024.000000 1024.000000" preserveAspectRatio="xMidYMid meet" transform="rotate(0) scale(1, 1)">

<g transform="translate(0.000000,1024.000000) scale(0.100000,-0.100000)" fill="#25aad7" stroke="none">
<path d="M6535 7240 c-259 -28 -443 -116 -613 -293 -155 -162 -159 -322 -14&#10;-607 170 -335 301 -482 405 -456 84 21 190 165 253 344 l38 107 4 368 3 368&#10;57 -6 c119 -14 200 -36 290 -80 123 -59 188 -121 244 -232 54 -106 88 -148&#10;147 -177 58 -30 162 -62 246 -77 64 -11 65 -12 65 -43 0 -45 39 -118 77 -141&#10;39 -24 40 -37 8 -102 -36 -71 -94 -133 -156 -168 l-54 -30 -385 0 -385 0 12&#10;-210 c6 -115 10 -212 7 -214 -2 -2 -50 -8 -106 -12 -105 -8 -249 1 -323 22&#10;-60 16 -203 94 -269 147 -49 39 -64 58 -85 112 -23 56 -34 70 -83 104 -32 22&#10;-60 37 -63 34 -3 -2 -8 -39 -11 -81 l-7 -77 -41 -24 c-72 -43 -142 -113 -230&#10;-229 -87 -116 -198 -302 -251 -419 -16 -37 -33 -68 -36 -68 -3 0 -25 35 -49&#10;78 -182 326 -267 436 -460 591 -172 139 -314 214 -513 275 -165 50 -247 58&#10;-614 58 l-323 0 0 23 c0 30 57 305 70 340 13 33 3 33 -167 -5 -73 -16 -142&#10;-30 -151 -30 -15 0 -26 -30 -61 -172 -24 -95 -48 -179 -53 -185 -6 -8 -33 -13&#10;-64 -13 -51 0 -54 1 -54 25 0 14 14 89 30 167 17 78 29 142 28 144 -2 1 -69&#10;-14 -150 -33 l-148 -35 -11 -41 c-24 -94 -72 -223 -87 -234 -9 -7 -37 -13 -64&#10;-13 -59 0 -59 2 -15 130 39 112 92 197 147 235 50 35 182 75 415 126 249 55&#10;461 109 725 184 294 85 604 151 772 166 257 23 609 -2 778 -55 72 -22 230 -82&#10;291 -109 l56 -26 6 65 c3 43 11 72 23 85 16 17 16 22 4 30 -41 27 -119 62&#10;-198 89 -445 149 -1007 132 -1662 -50 -158 -44 -538 -138 -888 -220 -279 -65&#10;-361 -97 -454 -179 -92 -82 -166 -225 -204 -398 -16 -69 -17 -142 -16 -656 0&#10;-386 5 -597 12 -633 15 -71 60 -121 117 -130 l41 -6 17 -95 c22 -120 60 -197&#10;130 -262 68 -61 108 -75 192 -68 170 16 285 131 311 311 l7 49 206 4 206 3 23&#10;-67 c52 -156 129 -262 224 -310 45 -23 58 -25 131 -20 97 7 162 26 235 69 68&#10;41 105 94 154 222 l37 95 282 3 c282 3 307 2 307 -11 0 -8 -178 -224 -286&#10;-348 -34 -39 -64 -77 -66 -84 -4 -12 -184 -15 -1085 -19 -1063 -5 -1081 -5&#10;-1104 -25 -40 -34 -48 -49 -49 -83 0 -36 36 -78 74 -87 12 -3 1255 -4 2762 -3&#10;2725 3 2742 3 2764 23 12 11 29 33 37 49 19 36 4 77 -41 109 l-31 22 -451 -4&#10;c-248 -2 -460 0 -471 3 -19 6 -17 16 43 182 79 215 98 315 92 479 -4 104 -9&#10;132 -37 210 -18 50 -36 106 -41 125 -11 40 -13 527 -4 608 l7 52 251 0 c289 0&#10;353 10 454 66 152 86 253 240 298 460 19 91 8 151 -38 215 -35 48 -60 60 -204&#10;94 -60 15 -153 41 -207 58 l-98 32 -36 67 c-44 84 -130 187 -208 251 -73 59&#10;-215 129 -309 152 -58 14 -238 38 -256 33 -3 0 -36 -4 -75 -8z m-2540 -1314&#10;c388 -59 692 -241 932 -558 71 -93 114 -173 174 -319 l50 -122 -35 -52 -34&#10;-52 -69 -6 c-37 -4 -265 -7 -505 -7 l-438 0 -14 23 c-7 12 -33 66 -56 120 -68&#10;155 -153 226 -273 227 -66 0 -134 -29 -179 -77 -40 -42 -78 -133 -91 -220&#10;l-12 -78 -250 4 c-137 2 -261 7 -275 11 -18 5 -26 16 -32 43 -19 90 -96 195&#10;-164 223 -43 18 -155 18 -197 0 -47 -19 -85 -69 -104 -137 -9 -32 -22 -59 -29&#10;-59 -10 0 -13 102 -16 488 -2 268 -3 488 -3 489 1 1 102 7 225 13 124 6 304&#10;18 400 27 333 31 852 41 995 19z m2031 -346 c67 -55 164 -104 269 -136 81 -24&#10;110 -27 288 -32 l197 -4 0 -140 c0 -137 1 -141 34 -216 55 -127 69 -244 46&#10;-388 -18 -111 -112 -361 -153 -407 -12 -13 -31 -40 -41 -60 l-19 -37 -206 -2&#10;c-113 -2 -244 -2 -291 -2 -47 0 -386 1 -755 2 l-669 2 40 43 c22 23 84 97 137&#10;163 53 67 165 200 249 295 84 96 184 215 222 264 39 50 122 150 185 224 64 73&#10;134 157 156 186 88 113 238 285 250 285 7 0 35 -18 61 -40z m-2218 -644 c59&#10;-67 97 -212 82 -313 -10 -68 -23 -105 -51 -144 -67 -94 -190 45 -206 233 -16&#10;194 86 325 175 224z m-1124 -36 c51 -62 86 -233 66 -323 -18 -76 -34 -97 -75&#10;-97 -67 0 -116 101 -118 245 -2 103 13 155 50 185 35 27 47 25 77 -10z"/>
<path d="M2556 5749 c-27 -4 -53 -14 -57 -21 -13 -19 -11 -62 3 -76 15 -15&#10;241 -17 269 -2 28 15 26 74 -3 94 -25 18 -125 20 -212 5z"/>
<path d="M3087 5728 c-37 -34 -42 -62 -16 -87 70 -65 178 2 122 77 -27 36 -72&#10;41 -106 10z"/>
<path d="M3478 5734 c-54 -29 -50 -102 8 -129 103 -49 213 47 139 120 -19 20&#10;-34 25 -72 25 -26 -1 -60 -7 -75 -16z"/>
<path d="M2575 5571 l-70 -6 -3 -52 -3 -53 140 0 c133 0 140 1 146 21 4 11 4&#10;36 0 55 -5 27 -11 34 -29 34 -13 0 -43 2 -67 4 -24 2 -75 1 -114 -3z"/>
<path d="M4455 5441 c-47 -28 -83 -76 -100 -133 -20 -68 -19 -84 9 -143 30&#10;-63 58 -92 110 -116 83 -38 173 -15 243 62 82 90 40 269 -77 329 -52 26 -143&#10;27 -185 1z"/>
<path d="M5924 5210 c-67 -27 -86 -125 -36 -181 23 -25 38 -33 78 -36 43 -4&#10;54 -2 81 21 45 38 59 78 44 127 -19 64 -98 97 -167 69z"/>
<path d="M6240 4960 c-29 -29 -26 -81 6 -119 14 -17 30 -31 36 -31 5 0 23 13&#10;39 29 37 38 39 82 4 116 -29 30 -58 32 -85 5z"/>
<path d="M6656 4765 c3 -33 13 -71 21 -85 13 -24 14 -22 9 26 -2 28 -12 66&#10;-20 85 l-16 34 6 -60z"/>
<path d="M5783 4784 c-62 -31 -82 -89 -52 -152 47 -96 165 -97 218 -2 27 48&#10;27 80 0 114 -43 54 -106 69 -166 40z"/>
<path d="M6222 4655 c-69 -30 -79 -132 -19 -188 29 -26 36 -29 86 -25 45 4 59&#10;10 83 37 52 58 33 147 -38 177 -42 17 -70 17 -112 -1z"/>
<path d="M6913 6735 c-73 -31 -83 -134 -19 -192 40 -37 79 -42 127 -18 35 19&#10;69 70 69 105 0 37 -33 84 -73 103 -42 20 -62 21 -104 2z"/>
<path d="M4180 6641 c0 -5 16 -54 35 -108 19 -54 55 -164 80 -245 l46 -147&#10;387 -3 c213 -2 391 0 395 3 7 5 -118 390 -158 492 -7 16 -35 17 -396 17 -232&#10;0 -389 -4 -389 -9z"/>
<path d="M5125 6578 c25 -77 125 -364 143 -410 13 -32 2 -31 207 -29 83 0 193&#10;-3 245 -7 52 -5 97 -7 99 -6 2 2 -17 38 -42 81 -58 99 -82 161 -117 298 l-28&#10;110 -44 3 c-23 1 -116 9 -204 17 -89 8 -189 15 -222 15 l-60 0 23 -72z"/>
<path d="M3835 6589 c-99 -22 -205 -45 -236 -51 l-57 -12 -12 -71 c-6 -38 -23&#10;-117 -36 -173 -38 -163 -63 -146 209 -136 127 5 283 9 345 8 106 -1 112 0 112&#10;19 0 38 -128 458 -139 456 -4 -1 -87 -19 -186 -40z"/>
<path d="M5170 5923 c-22 -8 -69 -54 -89 -88 -62 -101 -12 -242 101 -289 76&#10;-32 155 -10 220 62 48 53 64 109 48 170 -25 99 -96 153 -201 151 -35 0 -71 -3&#10;-79 -6z"/>
<path d="M7374 4691 c-77 -47 -96 -123 -49 -194 46 -66 119 -86 183 -47 65 40&#10;91 125 57 190 -33 64 -128 89 -191 51z"/>
<path d="M2342 3673 c-73 -25 -107 -86 -77 -142 34 -66 -204 -61 2819 -61&#10;l2744 0 32 26 c43 37 62 77 51 107 -9 22 -64 77 -79 77 -4 0 -1233 1 -2732 3&#10;-2052 1 -2732 -1 -2758 -10z"/>
<path d="M2320 3168 c-80 -55 -87 -103 -25 -165 l33 -33 2737 0 c2536 0 2740&#10;1 2772 17 20 9 44 30 54 47 33 55 21 98 -38 138 -27 17 -133 18 -2764 18&#10;l-2736 0 -33 -22z"/>
</g>
</svg>